<?xml version="1.0" encoding="utf-8"?>
<!-- Generator: Adobe Illustrator 27.5.0, SVG Export Plug-In . SVG Version: 6.00 Build 0)  -->
<svg version="1.1" xmlns="http://www.w3.org/2000/svg" xmlns:xlink="http://www.w3.org/1999/xlink" x="0px" y="0px"
	 viewBox="0 0 500 500" style="enable-background:new 0 0 500 500;" xml:space="preserve">
<g id="BACKGROUND">
</g>
<g id="OBJECTS">
	<text x="50%" y="63%" text-anchor="middle" dominant-baseline="middle" style="fill:#2D3640; font-family:'Montserrat'; font-size:30px; letter-spacing:5;">
	NIKHIL KUNJOOR
	</text>
	<text x="50%" y="69%" text-anchor="middle" dominant-baseline="middle" style="fill:#2D3640; font-family:'Montserrat'; font-size:10px; letter-spacing:3;">
	A passionate Hardware & Software Engineer
	</text>
	<g>
		<path style="fill:#2D3640;" d="M155.991,203.566c5.06,0,9.176-4.117,9.176-9.176c0-4.059-2.65-7.509-6.311-8.716v-14.647h61.23
			c1.206,3.661,4.656,6.311,8.716,6.311c5.06,0,9.176-4.117,9.176-9.176c0-5.06-4.117-9.176-9.176-9.176
			c-4.059,0-7.509,2.65-8.716,6.311h-64.095c-1.582,0-2.865,1.283-2.865,2.865v17.512c-3.661,1.207-6.311,4.657-6.311,8.716
			C146.815,199.449,150.931,203.566,155.991,203.566z M228.802,164.716c1.9,0,3.445,1.546,3.445,3.445
			c0,1.9-1.546,3.445-3.445,3.445c-1.9,0-3.446-1.546-3.446-3.445C225.357,166.261,226.902,164.716,228.802,164.716z
			 M155.991,190.944c1.9,0,3.446,1.546,3.446,3.446s-1.546,3.445-3.446,3.445c-1.9,0-3.445-1.546-3.445-3.445
			S154.091,190.944,155.991,190.944z"/>
		<path style="fill:#2D3640;" d="M197.519,268.767c-4.059,0-7.509,2.65-8.716,6.311h-29.946v-48.212
			c3.66-1.206,6.311-4.657,6.311-8.716c0-5.06-4.116-9.176-9.176-9.176c-5.06,0-9.176,4.117-9.176,9.176
			c0,4.059,2.65,7.509,6.311,8.716v51.078c0,1.583,1.283,2.865,2.865,2.865h32.812c1.206,3.661,4.656,6.311,8.716,6.311
			c5.06,0,9.176-4.116,9.176-9.176C206.695,272.883,202.579,268.767,197.519,268.767z M155.991,214.704
			c1.9,0,3.446,1.546,3.446,3.445s-1.546,3.445-3.446,3.445c-1.9,0-3.445-1.546-3.445-3.445S154.091,214.704,155.991,214.704z
			 M197.519,281.389c-1.9,0-3.446-1.546-3.446-3.445c0-1.9,1.546-3.445,3.446-3.445c1.9,0,3.445,1.546,3.445,3.445
			C200.964,279.843,199.419,281.389,197.519,281.389z"/>
		<path style="fill:#2D3640;" d="M324.955,175.768c-4.063,0-7.516,2.655-8.719,6.321c-0.066-0.004-0.131-0.01-0.198-0.01h-25.574
			c-1.583,0-2.866,1.283-2.866,2.866v22.54h-21.746c-1.207-3.661-4.657-6.311-8.716-6.311c-5.06,0-9.176,4.117-9.176,9.176
			c0,5.06,4.117,9.176,9.176,9.176c4.059,0,7.509-2.65,8.716-6.311h24.611c1.583,0,2.866-1.283,2.866-2.865v-22.54h22.708
			c0.067,0,0.132-0.006,0.198-0.01c1.204,3.666,4.656,6.321,8.719,6.321c5.06,0,9.176-4.117,9.176-9.176
			C334.131,179.884,330.015,175.768,324.955,175.768z M257.136,213.795c-1.9,0-3.445-1.546-3.445-3.445
			c0-1.9,1.546-3.445,3.445-3.445c1.9,0,3.445,1.546,3.445,3.445C260.582,212.249,259.036,213.795,257.136,213.795z M324.955,188.39
			c-1.9,0-3.445-1.546-3.445-3.445c0-1.9,1.546-3.446,3.445-3.446s3.445,1.546,3.445,3.446
			C328.4,186.844,326.855,188.39,324.955,188.39z"/>
		<path style="fill:#2D3640;" d="M254.208,177.338c4.059,0,7.509-2.65,8.716-6.311h78.22v30.04c-3.66,1.207-6.311,4.657-6.311,8.716
			c0,5.06,4.117,9.176,9.177,9.176c5.06,0,9.176-4.117,9.176-9.176c0-4.059-2.65-7.509-6.311-8.716v-32.906
			c0-1.583-1.283-2.865-2.865-2.865h-81.085c-1.207-3.661-4.656-6.311-8.716-6.311c-5.06,0-9.176,4.117-9.176,9.176
			C245.031,173.221,249.148,177.338,254.208,177.338z M344.009,213.228c-1.9,0-3.445-1.546-3.445-3.445
			c0-1.9,1.546-3.446,3.445-3.446c1.9,0,3.445,1.546,3.445,3.446C347.454,211.683,345.908,213.228,344.009,213.228z
			 M254.208,164.716c1.9,0,3.445,1.546,3.445,3.445c0,1.9-1.546,3.445-3.445,3.445c-1.9,0-3.445-1.546-3.445-3.445
			C250.762,166.261,252.308,164.716,254.208,164.716z"/>
		<path style="fill:#2D3640;" d="M344.009,224.058c-5.06,0-9.177,4.117-9.177,9.176c0,4.059,2.651,7.509,6.311,8.716v33.128H232.368
			c-1.207-3.661-4.656-6.311-8.716-6.311c-5.06,0-9.176,4.116-9.176,9.176c0,5.06,4.117,9.176,9.176,9.176
			c4.059,0,7.509-2.65,8.716-6.311h111.641c1.582,0,2.865-1.283,2.865-2.865V241.95c3.661-1.207,6.311-4.657,6.311-8.716
			C353.185,228.174,349.069,224.058,344.009,224.058z M223.652,281.389c-1.9,0-3.445-1.546-3.445-3.445
			c0-1.9,1.546-3.445,3.445-3.445s3.445,1.546,3.445,3.445C227.098,279.843,225.552,281.389,223.652,281.389z M344.009,236.68
			c-1.9,0-3.445-1.546-3.445-3.446c0-1.9,1.546-3.445,3.445-3.445c1.9,0,3.445,1.546,3.445,3.445
			C347.454,235.134,345.908,236.68,344.009,236.68z"/>
		<path style="fill:#2D3640;" d="M262.474,187.81c1.207,3.66,4.656,6.311,8.716,6.311c5.06,0,9.177-4.117,9.177-9.176
			c0-5.06-4.117-9.176-9.177-9.176c-4.059,0-7.509,2.65-8.716,6.311h-87.429c-1.583,0-2.865,1.283-2.865,2.866v25.405
			c0,1.583,1.283,2.865,2.865,2.865h47.186c1.206,3.661,4.656,6.311,8.716,6.311c5.06,0,9.176-4.117,9.176-9.176
			c0-5.06-4.117-9.176-9.176-9.176c-4.059,0-7.509,2.65-8.716,6.311h-44.321V187.81H262.474z M271.19,181.499
			c1.9,0,3.446,1.546,3.446,3.446c0,1.9-1.546,3.445-3.446,3.445c-1.9,0-3.445-1.546-3.445-3.445
			C267.745,183.044,269.29,181.499,271.19,181.499z M230.948,206.904c1.9,0,3.446,1.546,3.446,3.445c0,1.9-1.546,3.445-3.446,3.445
			s-3.445-1.546-3.445-3.445C227.502,208.45,229.048,206.904,230.948,206.904z"/>
		<path style="fill:#2D3640;" d="M299.34,232.889c-1.207-3.66-4.656-6.311-8.716-6.311c-5.06,0-9.176,4.117-9.176,9.176
			c0,5.06,4.116,9.176,9.176,9.176c4.059,0,7.509-2.65,8.716-6.311h25.615c1.583,0,2.866-1.283,2.866-2.865V210.35
			c0-1.583-1.283-2.865-2.866-2.865h-9.229c-1.207-3.661-4.656-6.311-8.716-6.311c-5.06,0-9.176,4.117-9.176,9.176
			c0,5.06,4.116,9.176,9.176,9.176c4.059,0,7.509-2.65,8.716-6.311h6.364v19.674H299.34z M290.624,239.2
			c-1.9,0-3.445-1.546-3.445-3.445c0-1.9,1.546-3.446,3.445-3.446s3.445,1.546,3.445,3.446
			C294.07,237.655,292.524,239.2,290.624,239.2z M307.009,213.795c-1.9,0-3.445-1.546-3.445-3.445c0-1.9,1.546-3.445,3.445-3.445
			s3.445,1.546,3.445,3.445C310.455,212.249,308.909,213.795,307.009,213.795z"/>
		<path style="fill:#2D3640;" d="M268.087,264.026h48.152c1.207,3.661,4.656,6.311,8.716,6.311c5.06,0,9.176-4.117,9.176-9.176
			c0-5.06-4.117-9.177-9.176-9.177c-4.059,0-7.509,2.65-8.716,6.311h-45.286v-22.54c0-1.583-1.283-2.866-2.866-2.866h-57.406
			c-1.207-3.66-4.657-6.311-8.716-6.311c-5.06,0-9.176,4.117-9.176,9.176c0,5.06,4.117,9.176,9.176,9.176
			c4.059,0,7.509-2.65,8.716-6.311h54.54v22.54C265.221,262.743,266.504,264.026,268.087,264.026z M324.955,257.715
			c1.9,0,3.445,1.546,3.445,3.446c0,1.9-1.546,3.445-3.445,3.445s-3.445-1.546-3.445-3.445
			C321.509,259.261,323.055,257.715,324.955,257.715z M201.965,239.2c-1.9,0-3.445-1.546-3.445-3.445c0-1.9,1.546-3.446,3.445-3.446
			c1.816,0,3.304,1.413,3.433,3.196c-0.007,0.082-0.012,0.165-0.012,0.249c0,0.084,0.006,0.167,0.012,0.249
			C205.269,237.788,203.781,239.2,201.965,239.2z"/>
		<path style="fill:#2D3640;" d="M175.045,264.026h64.136c1.207,3.661,4.656,6.311,8.716,6.311c5.06,0,9.176-4.117,9.176-9.176
			c0-5.06-4.117-9.177-9.176-9.177c-4.059,0-7.509,2.65-8.716,6.311h-61.27v-13.824c3.66-1.206,6.311-4.656,6.311-8.716
			c0-5.06-4.117-9.176-9.176-9.176c-5.06,0-9.176,4.117-9.176,9.176c0,4.059,2.65,7.509,6.311,8.716v16.69
			C172.18,262.743,173.463,264.026,175.045,264.026z M247.897,257.715c1.9,0,3.445,1.546,3.445,3.446c0,1.9-1.546,3.445-3.445,3.445
			c-1.9,0-3.446-1.546-3.446-3.445C244.451,259.261,245.997,257.715,247.897,257.715z M175.045,232.309
			c1.9,0,3.446,1.546,3.446,3.446c0,1.9-1.546,3.445-3.446,3.445c-1.9,0-3.445-1.546-3.445-3.445
			C171.6,233.855,173.146,232.309,175.045,232.309z"/>
	</g>
</g>
</svg>
